<svg width="15" height="44" viewBox="0 0 15 44" fill="none" xmlns="http://www.w3.org/2000/svg">
<path d="M11.8533 16.0283H10.8328C10.7234 15.2173 10.327 14.4723 9.71558 13.9284C9.10412 13.3845 8.31803 13.0776 7.49979 13.0635C6.68155 13.0776 5.89545 13.3845 5.284 13.9284C4.67254 14.4723 4.27619 15.2173 4.16679 16.0283H3.14679C2.58557 16.0286 2.04744 16.2517 1.65053 16.6485C1.25362 17.0452 1.03037 17.5833 1.02979 18.1445V25.86C1.03029 26.4211 1.25339 26.9591 1.65013 27.356C2.04687 27.7528 2.58484 27.976 3.14599 27.9767H11.853C12.4142 27.9762 12.9524 27.753 13.3492 27.3562C13.7461 26.9593 13.9693 26.4212 13.9698 25.86V18.1445C13.9692 17.5834 13.746 17.0454 13.3492 16.6486C12.9524 16.2519 12.4144 16.0288 11.8533 16.0283ZM7.49979 14.1631C8.0272 14.1745 8.5349 14.3656 8.93897 14.7048C9.34303 15.0439 9.61926 15.5108 9.72199 16.0283H5.27759C5.38031 15.5108 5.65654 15.0439 6.0606 14.7048C6.46467 14.3656 6.97237 14.1745 7.49979 14.1631ZM12.8698 25.86C12.8695 26.1296 12.7623 26.388 12.5717 26.5787C12.3812 26.7693 12.1228 26.8767 11.8532 26.8771H3.14629C2.87673 26.8766 2.61835 26.7693 2.4278 26.5786C2.23725 26.388 2.13008 26.1295 2.12979 25.86V18.1445C2.1301 17.875 2.23731 17.6166 2.42789 17.426C2.61847 17.2354 2.87686 17.1282 3.14639 17.1279H11.8534C12.1229 17.1282 12.3812 17.2355 12.5718 17.4261C12.7623 17.6166 12.8695 17.875 12.8698 18.1445V25.86Z" fill="black" fill-opacity="0.8"/>
</svg>
