<svg width="15" height="44" viewBox="0 0 15 44" fill="none" xmlns="http://www.w3.org/2000/svg">
<path d="M13.5729 17.6825C13.0521 18.0014 12.6206 18.4473 12.3189 18.9783C12.0173 19.5094 11.8553 20.1083 11.8481 20.719C11.8502 21.4064 12.0538 22.078 12.4339 22.6508C12.8139 23.2236 13.3535 23.6723 13.986 23.9413C13.7367 24.7459 13.3676 25.5084 12.8912 26.2031C12.2096 27.1843 11.4969 28.1654 10.4125 28.1654C9.32814 28.1654 9.04924 27.5354 7.79954 27.5354C6.58084 27.5354 6.14704 28.1861 5.15554 28.1861C4.16404 28.1861 3.47214 27.2772 2.67684 26.1618C1.62631 24.5993 1.04895 22.7668 1.01404 20.8842C1.01404 17.7858 3.02804 16.1437 5.01094 16.1437C6.06444 16.1437 6.94234 16.8356 7.60334 16.8356C8.23334 16.8356 9.21454 16.1023 10.4125 16.1023C11.0285 16.0864 11.6389 16.2223 12.19 16.4978C12.7412 16.7734 13.2161 17.1802 13.5729 17.6825ZM9.84454 14.7907C10.3726 14.1695 10.6716 13.3859 10.6914 12.5707C10.6923 12.4633 10.6819 12.356 10.6604 12.2507C9.7533 12.3393 8.91444 12.7717 8.31594 13.4591C7.78275 14.0556 7.47254 14.8183 7.43804 15.6176C7.43844 15.7148 7.44883 15.8117 7.46904 15.9068C7.54055 15.9204 7.61316 15.9273 7.68594 15.9275C8.10401 15.8943 8.51095 15.7763 8.88204 15.5809C9.25312 15.3855 9.58058 15.1166 9.84454 14.7907Z" fill="black" fill-opacity="0.8"/>
</svg>
